<svg width="74" height="49" viewBox="0 0 74 49" fill="none" xmlns="http://www.w3.org/2000/svg">
<mask id="path-1-outside-1_463_1148" maskUnits="userSpaceOnUse" x="-1" y="-1" width="76" height="51" fill="black">
<rect fill="white" x="-1" y="-1" width="76" height="51"/>
<path d="M6.384 48.448C4.76267 48.448 3.41867 47.9573 2.352 46.976C1.328 45.952 0.816 44.6933 0.816 43.2C0.816 41.7067 1.328 40.4693 2.352 39.488C3.41867 38.464 4.76267 37.952 6.384 37.952C7.96267 37.952 9.264 38.464 10.288 39.488C11.312 40.4693 11.824 41.7067 11.824 43.2C11.824 44.6933 11.312 45.952 10.288 46.976C9.264 47.9573 7.96267 48.448 6.384 48.448ZM18.017 24.064C18.017 16.6827 19.3397 10.9013 21.985 6.72C24.673 2.53866 29.1103 0.447998 35.297 0.447998C41.4837 0.447998 45.8997 2.53866 48.545 6.72C51.233 10.9013 52.577 16.6827 52.577 24.064C52.577 31.488 51.233 37.312 48.545 41.536C45.8997 45.76 41.4837 47.872 35.297 47.872C29.1103 47.872 24.673 45.76 21.985 41.536C19.3397 37.312 18.017 31.488 18.017 24.064ZM43.745 24.064C43.745 20.9067 43.5317 18.2613 43.105 16.128C42.721 13.952 41.9103 12.1813 40.673 10.816C39.4783 9.45066 37.6863 8.768 35.297 8.768C32.9077 8.768 31.0943 9.45066 29.857 10.816C28.6623 12.1813 27.8517 13.952 27.425 16.128C27.041 18.2613 26.849 20.9067 26.849 24.064C26.849 27.3067 27.041 30.0373 27.425 32.256C27.809 34.432 28.6197 36.2027 29.857 37.568C31.0943 38.8907 32.9077 39.552 35.297 39.552C37.6863 39.552 39.4997 38.8907 40.737 37.568C41.9743 36.2027 42.785 34.432 43.169 32.256C43.553 30.0373 43.745 27.3067 43.745 24.064ZM58.304 9.6V1.344H73.728V48H64.512V9.6H58.304Z"/>
</mask>
<path d="M2.352 46.976L1.64489 47.6831L1.65962 47.6978L1.67494 47.7119L2.352 46.976ZM2.352 39.488L3.04391 40.21L3.04453 40.2094L2.352 39.488ZM10.288 39.488L9.58089 40.1951L9.58842 40.2026L9.5961 40.21L10.288 39.488ZM10.288 46.976L10.9799 47.698L10.9876 47.6906L10.9951 47.6831L10.288 46.976ZM6.384 47.448C4.98136 47.448 3.88879 47.031 3.02906 46.2401L1.67494 47.7119C2.94854 48.8836 4.54397 49.448 6.384 49.448V47.448ZM3.05911 46.2689C2.22909 45.4389 1.816 44.4374 1.816 43.2H-0.184C-0.184 44.9493 0.426915 46.4651 1.64489 47.6831L3.05911 46.2689ZM1.816 43.2C1.816 41.9631 2.22808 40.9918 3.04391 40.21L1.66009 38.766C0.427924 39.9468 -0.184 41.4502 -0.184 43.2H1.816ZM3.04453 40.2094C3.90622 39.3822 4.9936 38.952 6.384 38.952V36.952C4.53174 36.952 2.93112 37.5458 1.65947 38.7666L3.04453 40.2094ZM6.384 38.952C7.72378 38.952 8.76226 39.3765 9.58089 40.1951L10.9951 38.7809C9.76574 37.5515 8.20156 36.952 6.384 36.952V38.952ZM9.5961 40.21C10.4119 40.9918 10.824 41.9631 10.824 43.2H12.824C12.824 41.4502 12.2121 39.9468 10.9799 38.766L9.5961 40.21ZM10.824 43.2C10.824 44.4374 10.4109 45.4389 9.58089 46.2689L10.9951 47.6831C12.2131 46.4651 12.824 44.9493 12.824 43.2H10.824ZM9.59609 46.254C8.77996 47.0361 7.73653 47.448 6.384 47.448V49.448C8.18881 49.448 9.74804 48.8785 10.9799 47.698L9.59609 46.254ZM21.985 6.72L21.1438 6.17923L21.1399 6.18536L21.985 6.72ZM48.545 6.72L47.6999 7.25465L47.7038 7.26076L48.545 6.72ZM48.545 41.536L47.7013 40.9991L47.6975 41.0052L48.545 41.536ZM21.985 41.536L21.1375 42.0668L21.1413 42.0729L21.985 41.536ZM43.105 16.128L42.1202 16.3018L42.1222 16.313L42.1244 16.3241L43.105 16.128ZM40.673 10.816L39.9204 11.4745L39.9262 11.4811L39.932 11.4875L40.673 10.816ZM29.857 10.816L29.116 10.1445L29.1102 10.1509L29.1044 10.1575L29.857 10.816ZM27.425 16.128L26.4437 15.9356L26.4422 15.9432L26.4408 15.9508L27.425 16.128ZM27.425 32.256L26.4396 32.4265L26.4402 32.4298L27.425 32.256ZM29.857 37.568L29.116 38.2395L29.1213 38.2454L29.1267 38.2512L29.857 37.568ZM40.737 37.568L41.4673 38.2512L41.4727 38.2454L41.478 38.2395L40.737 37.568ZM43.169 32.256L44.1538 32.4298L44.1544 32.4265L43.169 32.256ZM19.017 24.064C19.017 16.7849 20.3241 11.2156 22.8301 7.25464L21.1399 6.18536C18.3552 10.587 17.017 16.5805 17.017 24.064H19.017ZM22.8262 7.26076C25.284 3.4374 29.3555 1.448 35.297 1.448V-0.552002C28.8652 -0.552002 24.062 1.63993 21.1438 6.17924L22.8262 7.26076ZM35.297 1.448C41.2391 1.448 45.2849 3.43732 47.6999 7.25464L49.3901 6.18536C46.5145 1.64001 41.7283 -0.552002 35.297 -0.552002V1.448ZM47.7038 7.26076C50.2493 11.2204 51.577 16.7871 51.577 24.064H53.577C53.577 16.5782 52.2167 10.5822 49.3862 6.17924L47.7038 7.26076ZM51.577 24.064C51.577 31.384 50.2492 36.9954 47.7013 40.9991L49.3887 42.0729C52.2168 37.6286 53.577 31.592 53.577 24.064H51.577ZM47.6975 41.0052C45.2805 44.8646 41.2348 46.872 35.297 46.872V48.872C41.7326 48.872 46.5188 46.6554 49.3925 42.0668L47.6975 41.0052ZM35.297 46.872C29.3597 46.872 25.2884 44.8644 22.8287 40.9991L21.1413 42.0729C24.0576 46.6555 28.8609 48.872 35.297 48.872V46.872ZM22.8325 41.0052C20.3243 37.0001 19.017 31.3862 19.017 24.064H17.017C17.017 31.5898 18.3551 37.6239 21.1375 42.0668L22.8325 41.0052ZM44.745 24.064C44.745 20.8675 44.5295 18.1515 44.0856 15.9319L42.1244 16.3241C42.5338 18.3711 42.745 20.9459 42.745 24.064H44.745ZM44.0898 15.9542C43.6796 13.6299 42.8011 11.6751 41.414 10.1445L39.932 11.4875C41.0196 12.6876 41.7624 14.274 42.1202 16.3018L44.0898 15.9542ZM41.4256 10.1575C39.9854 8.51153 37.8778 7.768 35.297 7.768V9.768C37.4949 9.768 38.9713 10.3898 39.9204 11.4745L41.4256 10.1575ZM35.297 7.768C32.7142 7.768 30.5953 8.51217 29.116 10.1445L30.598 11.4875C31.5934 10.3892 33.1012 9.768 35.297 9.768V7.768ZM29.1044 10.1575C27.7706 11.6819 26.8967 13.625 26.4437 15.9356L28.4063 16.3204C28.8066 14.279 29.5541 12.6808 30.6096 11.4745L29.1044 10.1575ZM26.4408 15.9508C26.0427 18.1625 25.849 20.8715 25.849 24.064H27.849C27.849 20.9418 28.0393 18.3602 28.4092 16.3052L26.4408 15.9508ZM25.849 24.064C25.849 27.3412 26.0427 30.133 26.4396 32.4265L28.4104 32.0855C28.0393 29.9417 27.849 27.2721 27.849 24.064H25.849ZM26.4402 32.4298C26.8504 34.754 27.7289 36.7089 29.116 38.2395L30.598 36.8965C29.5104 35.6964 28.7676 34.11 28.4098 32.0822L26.4402 32.4298ZM29.1267 38.2512C30.6083 39.8349 32.7235 40.552 35.297 40.552V38.552C33.0919 38.552 31.5804 37.9465 30.5873 36.8848L29.1267 38.2512ZM35.297 40.552C37.8705 40.552 39.9857 39.8349 41.4673 38.2512L40.0067 36.8848C39.0136 37.9465 37.5021 38.552 35.297 38.552V40.552ZM41.478 38.2395C42.8651 36.7089 43.7436 34.754 44.1538 32.4298L42.1842 32.0822C41.8264 34.11 41.0836 35.6964 39.996 36.8965L41.478 38.2395ZM44.1544 32.4265C44.5513 30.133 44.745 27.3412 44.745 24.064H42.745C42.745 27.2721 42.5547 29.9417 42.1837 32.0855L44.1544 32.4265ZM58.304 9.6H57.304V10.6H58.304V9.6ZM58.304 1.344V0.343998H57.304V1.344H58.304ZM73.728 1.344H74.728V0.343998H73.728V1.344ZM73.728 48V49H74.728V48H73.728ZM64.512 48H63.512V49H64.512V48ZM64.512 9.6H65.512V8.6H64.512V9.6ZM59.304 9.6V1.344H57.304V9.6H59.304ZM58.304 2.344H73.728V0.343998H58.304V2.344ZM72.728 1.344V48H74.728V1.344H72.728ZM73.728 47H64.512V49H73.728V47ZM65.512 48V9.6H63.512V48H65.512ZM64.512 8.6H58.304V10.6H64.512V8.6Z" fill="url(#paint0_linear_463_1148)" mask="url(#path-1-outside-1_463_1148)"/>
<defs>
<linearGradient id="paint0_linear_463_1148" x1="39" y1="-22" x2="39" y2="74" gradientUnits="userSpaceOnUse">
<stop stop-color="white"/>
<stop offset="1" stop-opacity="0"/>
</linearGradient>
</defs>
</svg>
