<svg width="90" height="49" viewBox="0 0 90 49" fill="none" xmlns="http://www.w3.org/2000/svg">
<mask id="path-1-outside-1_463_1149" maskUnits="userSpaceOnUse" x="-1" y="-1" width="92" height="51" fill="black">
<rect fill="white" x="-1" y="-1" width="92" height="51"/>
<path d="M5.634 48.448C4.01267 48.448 2.66867 47.9573 1.602 46.976C0.578 45.952 0.0660002 44.6933 0.0660002 43.2C0.0660002 41.7067 0.578 40.4693 1.602 39.488C2.66867 38.464 4.01267 37.952 5.634 37.952C7.21267 37.952 8.514 38.464 9.538 39.488C10.562 40.4693 11.074 41.7067 11.074 43.2C11.074 44.6933 10.562 45.952 9.538 46.976C8.514 47.9573 7.21267 48.448 5.634 48.448ZM17.267 24.064C17.267 16.6827 18.5897 10.9013 21.235 6.72C23.923 2.53866 28.3603 0.447998 34.547 0.447998C40.7337 0.447998 45.1497 2.53866 47.795 6.72C50.483 10.9013 51.827 16.6827 51.827 24.064C51.827 31.488 50.483 37.312 47.795 41.536C45.1497 45.76 40.7337 47.872 34.547 47.872C28.3603 47.872 23.923 45.76 21.235 41.536C18.5897 37.312 17.267 31.488 17.267 24.064ZM42.995 24.064C42.995 20.9067 42.7817 18.2613 42.355 16.128C41.971 13.952 41.1603 12.1813 39.923 10.816C38.7283 9.45066 36.9363 8.768 34.547 8.768C32.1577 8.768 30.3443 9.45066 29.107 10.816C27.9123 12.1813 27.1017 13.952 26.675 16.128C26.291 18.2613 26.099 20.9067 26.099 24.064C26.099 27.3067 26.291 30.0373 26.675 32.256C27.059 34.432 27.8697 36.2027 29.107 37.568C30.3443 38.8907 32.1577 39.552 34.547 39.552C36.9363 39.552 38.7497 38.8907 39.987 37.568C41.2243 36.2027 42.035 34.432 42.419 32.256C42.803 30.0373 42.995 27.3067 42.995 24.064ZM61.458 37.888C65.554 34.4747 68.818 31.6373 71.25 29.376C73.682 27.072 75.7087 24.6827 77.33 22.208C78.9513 19.7333 79.762 17.3013 79.762 14.912C79.762 12.736 79.25 11.0293 78.226 9.792C77.202 8.55466 75.6233 7.936 73.49 7.936C71.3567 7.936 69.714 8.66133 68.562 10.112C67.41 11.52 66.8127 13.4613 66.77 15.936H58.066C58.2367 10.816 59.7513 6.93333 62.61 4.288C65.5113 1.64266 69.1807 0.319996 73.618 0.319996C78.482 0.319996 82.2153 1.62133 84.818 4.224C87.4207 6.784 88.722 10.176 88.722 14.4C88.722 17.728 87.826 20.9067 86.034 23.936C84.242 26.9653 82.194 29.6107 79.89 31.872C77.586 34.0907 74.578 36.7787 70.866 39.936H89.746V47.36H58.13V40.704L61.458 37.888Z"/>
</mask>
<path d="M1.602 46.976L0.894893 47.6831L0.909618 47.6978L0.924944 47.7119L1.602 46.976ZM1.602 39.488L2.29391 40.21L2.29453 40.2094L1.602 39.488ZM9.538 39.488L8.83089 40.1951L8.83842 40.2026L8.8461 40.21L9.538 39.488ZM9.538 46.976L10.2299 47.698L10.2376 47.6906L10.2451 47.6831L9.538 46.976ZM5.634 47.448C4.23136 47.448 3.13879 47.031 2.27906 46.2401L0.924944 47.7119C2.19854 48.8836 3.79397 49.448 5.634 49.448V47.448ZM2.30911 46.2689C1.47909 45.4389 1.066 44.4374 1.066 43.2H-0.934C-0.934 44.9493 -0.323085 46.4651 0.894893 47.6831L2.30911 46.2689ZM1.066 43.2C1.066 41.9631 1.47808 40.9918 2.29391 40.21L0.910095 38.766C-0.322076 39.9468 -0.934 41.4502 -0.934 43.2H1.066ZM2.29453 40.2094C3.15622 39.3822 4.2436 38.952 5.634 38.952V36.952C3.78174 36.952 2.18112 37.5458 0.909468 38.7666L2.29453 40.2094ZM5.634 38.952C6.97378 38.952 8.01226 39.3765 8.83089 40.1951L10.2451 38.7809C9.01574 37.5515 7.45156 36.952 5.634 36.952V38.952ZM8.8461 40.21C9.66192 40.9918 10.074 41.9631 10.074 43.2H12.074C12.074 41.4502 11.4621 39.9468 10.2299 38.766L8.8461 40.21ZM10.074 43.2C10.074 44.4374 9.66091 45.4389 8.83089 46.2689L10.2451 47.6831C11.4631 46.4651 12.074 44.9493 12.074 43.2H10.074ZM8.84609 46.254C8.02996 47.0361 6.98653 47.448 5.634 47.448V49.448C7.43881 49.448 8.99804 48.8785 10.2299 47.698L8.84609 46.254ZM21.235 6.72L20.3938 6.17923L20.3899 6.18536L21.235 6.72ZM47.795 6.72L46.9499 7.25465L46.9538 7.26076L47.795 6.72ZM47.795 41.536L46.9513 40.9991L46.9475 41.0052L47.795 41.536ZM21.235 41.536L20.3875 42.0668L20.3913 42.0729L21.235 41.536ZM42.355 16.128L41.3702 16.3018L41.3722 16.313L41.3744 16.3241L42.355 16.128ZM39.923 10.816L39.1704 11.4745L39.1762 11.4811L39.182 11.4875L39.923 10.816ZM29.107 10.816L28.366 10.1445L28.3602 10.1509L28.3544 10.1575L29.107 10.816ZM26.675 16.128L25.6937 15.9356L25.6922 15.9432L25.6908 15.9508L26.675 16.128ZM26.675 32.256L25.6896 32.4265L25.6902 32.4298L26.675 32.256ZM29.107 37.568L28.366 38.2395L28.3713 38.2454L28.3767 38.2512L29.107 37.568ZM39.987 37.568L40.7173 38.2512L40.7227 38.2454L40.728 38.2395L39.987 37.568ZM42.419 32.256L43.4038 32.4298L43.4044 32.4265L42.419 32.256ZM18.267 24.064C18.267 16.7849 19.5741 11.2156 22.0801 7.25464L20.3899 6.18536C17.6052 10.587 16.267 16.5805 16.267 24.064H18.267ZM22.0762 7.26076C24.534 3.4374 28.6055 1.448 34.547 1.448V-0.552002C28.1152 -0.552002 23.312 1.63993 20.3938 6.17924L22.0762 7.26076ZM34.547 1.448C40.4891 1.448 44.5349 3.43732 46.9499 7.25464L48.6401 6.18536C45.7645 1.64001 40.9783 -0.552002 34.547 -0.552002V1.448ZM46.9538 7.26076C49.4993 11.2204 50.827 16.7871 50.827 24.064H52.827C52.827 16.5782 51.4667 10.5822 48.6362 6.17924L46.9538 7.26076ZM50.827 24.064C50.827 31.384 49.4992 36.9954 46.9513 40.9991L48.6387 42.0729C51.4668 37.6286 52.827 31.592 52.827 24.064H50.827ZM46.9475 41.0052C44.5305 44.8646 40.4848 46.872 34.547 46.872V48.872C40.9826 48.872 45.7688 46.6554 48.6425 42.0668L46.9475 41.0052ZM34.547 46.872C28.6097 46.872 24.5384 44.8644 22.0787 40.9991L20.3913 42.0729C23.3076 46.6555 28.1109 48.872 34.547 48.872V46.872ZM22.0825 41.0052C19.5743 37.0001 18.267 31.3862 18.267 24.064H16.267C16.267 31.5898 17.6051 37.6239 20.3875 42.0668L22.0825 41.0052ZM43.995 24.064C43.995 20.8675 43.7795 18.1515 43.3356 15.9319L41.3744 16.3241C41.7838 18.3711 41.995 20.9459 41.995 24.064H43.995ZM43.3398 15.9542C42.9296 13.6299 42.0511 11.6751 40.664 10.1445L39.182 11.4875C40.2696 12.6876 41.0124 14.274 41.3702 16.3018L43.3398 15.9542ZM40.6756 10.1575C39.2354 8.51153 37.1278 7.768 34.547 7.768V9.768C36.7449 9.768 38.2213 10.3898 39.1704 11.4745L40.6756 10.1575ZM34.547 7.768C31.9642 7.768 29.8453 8.51217 28.366 10.1445L29.848 11.4875C30.8434 10.3892 32.3512 9.768 34.547 9.768V7.768ZM28.3544 10.1575C27.0206 11.6819 26.1467 13.625 25.6937 15.9356L27.6563 16.3204C28.0566 14.279 28.8041 12.6808 29.8596 11.4745L28.3544 10.1575ZM25.6908 15.9508C25.2927 18.1625 25.099 20.8715 25.099 24.064H27.099C27.099 20.9418 27.2893 18.3602 27.6592 16.3052L25.6908 15.9508ZM25.099 24.064C25.099 27.3412 25.2927 30.133 25.6896 32.4265L27.6604 32.0855C27.2893 29.9417 27.099 27.2721 27.099 24.064H25.099ZM25.6902 32.4298C26.1004 34.754 26.9789 36.7089 28.366 38.2395L29.848 36.8965C28.7604 35.6964 28.0176 34.11 27.6598 32.0822L25.6902 32.4298ZM28.3767 38.2512C29.8583 39.8349 31.9735 40.552 34.547 40.552V38.552C32.3419 38.552 30.8304 37.9465 29.8373 36.8848L28.3767 38.2512ZM34.547 40.552C37.1205 40.552 39.2357 39.8349 40.7173 38.2512L39.2567 36.8848C38.2636 37.9465 36.7521 38.552 34.547 38.552V40.552ZM40.728 38.2395C42.1151 36.7089 42.9936 34.754 43.4038 32.4298L41.4342 32.0822C41.0764 34.11 40.3336 35.6964 39.246 36.8965L40.728 38.2395ZM43.4044 32.4265C43.8013 30.133 43.995 27.3412 43.995 24.064H41.995C41.995 27.2721 41.8047 29.9417 41.4337 32.0855L43.4044 32.4265ZM61.458 37.888L60.8178 37.1198L60.8121 37.1246L61.458 37.888ZM71.25 29.376L71.931 30.1084L71.9377 30.102L71.25 29.376ZM77.33 22.208L78.1665 22.756L77.33 22.208ZM78.226 9.792L77.4556 10.4296V10.4296L78.226 9.792ZM68.562 10.112L69.336 10.7452L69.3406 10.7396L69.3451 10.7339L68.562 10.112ZM66.77 15.936V16.936H67.7529L67.7699 15.9532L66.77 15.936ZM58.066 15.936L57.0666 15.9027L57.0321 16.936H58.066V15.936ZM62.61 4.288L61.9362 3.54902L61.9308 3.55404L62.61 4.288ZM84.818 4.224L84.1109 4.93113L84.1168 4.93693L84.818 4.224ZM86.034 23.936L86.8947 24.4451L86.034 23.936ZM79.89 31.872L80.5837 32.5924L80.5905 32.5857L79.89 31.872ZM70.866 39.936L70.2181 39.1743L68.1469 40.936H70.866V39.936ZM89.746 39.936H90.746V38.936H89.746V39.936ZM89.746 47.36V48.36H90.746V47.36H89.746ZM58.13 47.36H57.13V48.36H58.13V47.36ZM58.13 40.704L57.4841 39.9406L57.13 40.2402V40.704H58.13ZM62.0982 38.6562C66.2009 35.2373 69.4802 32.3871 71.9309 30.1083L70.5691 28.6437C68.1558 30.8876 64.9071 33.712 60.8178 37.1198L62.0982 38.6562ZM71.9377 30.102C74.4188 27.7515 76.4975 25.3035 78.1665 22.756L76.4935 21.66C74.9199 24.0619 72.9452 26.3925 70.5623 28.65L71.9377 30.102ZM78.1665 22.756C79.869 20.1574 80.762 17.5379 80.762 14.912H78.762C78.762 17.0648 78.0337 19.3093 76.4935 21.66L78.1665 22.756ZM80.762 14.912C80.762 12.5858 80.2141 10.6258 78.9964 9.15443L77.4556 10.4296C78.2859 11.4329 78.762 12.8862 78.762 14.912H80.762ZM78.9964 9.15443C77.7246 7.6177 75.8169 6.936 73.49 6.936V8.936C75.4298 8.936 76.6794 9.49163 77.4556 10.4296L78.9964 9.15443ZM73.49 6.936C71.1038 6.936 69.1508 7.76252 67.7789 9.49012L69.3451 10.7339C70.2772 9.56014 71.6096 8.936 73.49 8.936V6.936ZM67.788 9.47876C66.4499 11.1143 65.8153 13.2996 65.7701 15.9188L67.7699 15.9532C67.81 13.623 68.3701 11.9257 69.336 10.7452L67.788 9.47876ZM66.77 14.936H58.066V16.936H66.77V14.936ZM59.0654 15.9693C59.2301 11.0287 60.6826 7.43399 63.2892 5.02196L61.9308 3.55404C58.82 6.43267 57.2432 10.6033 57.0666 15.9027L59.0654 15.9693ZM63.2838 5.02695C65.9766 2.57167 69.3951 1.32 73.618 1.32V-0.680004C68.9663 -0.680004 65.046 0.713654 61.9362 3.54904L63.2838 5.02695ZM73.618 1.32C78.3051 1.32 81.7502 2.57037 84.1109 4.9311L85.5251 3.51689C82.6805 0.672291 78.6589 -0.680004 73.618 -0.680004V1.32ZM84.1168 4.93693C86.498 7.27915 87.722 10.3984 87.722 14.4H89.722C89.722 9.95361 88.3433 6.28885 85.5192 3.51107L84.1168 4.93693ZM87.722 14.4C87.722 17.5384 86.8796 20.5425 85.1733 23.4269L86.8947 24.4451C88.7724 21.2709 89.722 17.9176 89.722 14.4H87.722ZM85.1733 23.4269C83.4216 26.388 81.4261 28.9631 79.1895 31.1583L80.5905 32.5857C82.9619 30.2582 85.0624 27.5426 86.8947 24.4451L85.1733 23.4269ZM79.1964 31.1517C76.9127 33.3508 73.9216 36.0242 70.2181 39.1743L71.5139 40.6977C75.2344 37.5332 78.2593 34.8306 80.5836 32.5923L79.1964 31.1517ZM70.866 40.936H89.746V38.936H70.866V40.936ZM88.746 39.936V47.36H90.746V39.936H88.746ZM89.746 46.36H58.13V48.36H89.746V46.36ZM59.13 47.36V40.704H57.13V47.36H59.13ZM58.7759 41.4674L62.1039 38.6514L60.8121 37.1246L57.4841 39.9406L58.7759 41.4674Z" fill="url(#paint0_linear_463_1149)" mask="url(#path-1-outside-1_463_1149)"/>
<defs>
<linearGradient id="paint0_linear_463_1149" x1="44.5" y1="-22" x2="44.5" y2="74" gradientUnits="userSpaceOnUse">
<stop stop-color="white"/>
<stop offset="1" stop-opacity="0"/>
</linearGradient>
</defs>
</svg>
