<svg width="91" height="49" viewBox="0 0 91 49" fill="none" xmlns="http://www.w3.org/2000/svg">
<mask id="path-1-outside-1_463_1150" maskUnits="userSpaceOnUse" x="-1" y="-1" width="93" height="51" fill="black">
<rect fill="white" x="-1" y="-1" width="93" height="51"/>
<path d="M6.0715 48.448C4.45017 48.448 3.10617 47.9573 2.0395 46.976C1.0155 45.952 0.5035 44.6933 0.5035 43.2C0.5035 41.7067 1.0155 40.4693 2.0395 39.488C3.10617 38.464 4.45017 37.952 6.0715 37.952C7.65017 37.952 8.9515 38.464 9.9755 39.488C10.9995 40.4693 11.5115 41.7067 11.5115 43.2C11.5115 44.6933 10.9995 45.952 9.9755 46.976C8.9515 47.9573 7.65017 48.448 6.0715 48.448ZM17.7045 24.064C17.7045 16.6827 19.0272 10.9013 21.6725 6.72C24.3605 2.53866 28.7978 0.447998 34.9845 0.447998C41.1712 0.447998 45.5872 2.53866 48.2325 6.72C50.9205 10.9013 52.2645 16.6827 52.2645 24.064C52.2645 31.488 50.9205 37.312 48.2325 41.536C45.5872 45.76 41.1712 47.872 34.9845 47.872C28.7978 47.872 24.3605 45.76 21.6725 41.536C19.0272 37.312 17.7045 31.488 17.7045 24.064ZM43.4325 24.064C43.4325 20.9067 43.2192 18.2613 42.7925 16.128C42.4085 13.952 41.5978 12.1813 40.3605 10.816C39.1658 9.45066 37.3738 8.768 34.9845 8.768C32.5952 8.768 30.7818 9.45066 29.5445 10.816C28.3498 12.1813 27.5392 13.952 27.1125 16.128C26.7285 18.2613 26.5365 20.9067 26.5365 24.064C26.5365 27.3067 26.7285 30.0373 27.1125 32.256C27.4965 34.432 28.3072 36.2027 29.5445 37.568C30.7818 38.8907 32.5952 39.552 34.9845 39.552C37.3738 39.552 39.1872 38.8907 40.4245 37.568C41.6618 36.2027 42.4725 34.432 42.8565 32.256C43.2405 30.0373 43.4325 27.3067 43.4325 24.064ZM59.2075 13.632C59.4208 9.36533 60.9142 6.08 63.6875 3.776C66.5035 1.42933 70.1942 0.255997 74.7595 0.255997C77.8742 0.255997 80.5408 0.810664 82.7595 1.92C84.9782 2.98666 86.6422 4.45866 87.7515 6.336C88.9035 8.17066 89.4795 10.2613 89.4795 12.608C89.4795 15.296 88.7755 17.5787 87.3675 19.456C86.0022 21.2907 84.3595 22.528 82.4395 23.168V23.424C84.9142 24.192 86.8342 25.5573 88.1995 27.52C89.6075 29.4827 90.3115 32 90.3115 35.072C90.3115 37.632 89.7142 39.9147 88.5195 41.92C87.3675 43.9253 85.6395 45.504 83.3355 46.656C81.0742 47.7653 78.3435 48.32 75.1435 48.32C70.3222 48.32 66.3968 47.104 63.3675 44.672C60.3382 42.24 58.7382 38.656 58.5675 33.92H67.2715C67.3568 36.0107 68.0608 37.696 69.3835 38.976C70.7488 40.2133 72.6048 40.832 74.9515 40.832C77.1275 40.832 78.7915 40.2347 79.9435 39.04C81.1382 37.8027 81.7355 36.224 81.7355 34.304C81.7355 31.744 80.9248 29.9093 79.3035 28.8C77.6822 27.6907 75.1648 27.136 71.7515 27.136H69.8955V19.776H71.7515C77.8102 19.776 80.8395 17.7493 80.8395 13.696C80.8395 11.8613 80.2848 10.432 79.1755 9.408C78.1088 8.384 76.5515 7.872 74.5035 7.872C72.4982 7.872 70.9408 8.42666 69.8315 9.536C68.7648 10.6027 68.1462 11.968 67.9755 13.632H59.2075Z"/>
</mask>
<path d="M2.0395 46.976L1.33239 47.6831L1.34712 47.6978L1.36244 47.7119L2.0395 46.976ZM2.0395 39.488L2.73141 40.21L2.73203 40.2094L2.0395 39.488ZM9.9755 39.488L9.26839 40.1951L9.27592 40.2026L9.2836 40.21L9.9755 39.488ZM9.9755 46.976L10.6674 47.698L10.6751 47.6906L10.6826 47.6831L9.9755 46.976ZM6.0715 47.448C4.66886 47.448 3.57629 47.031 2.71656 46.2401L1.36244 47.7119C2.63604 48.8836 4.23147 49.448 6.0715 49.448V47.448ZM2.74661 46.2689C1.91659 45.4389 1.5035 44.4374 1.5035 43.2H-0.4965C-0.4965 44.9493 0.114415 46.4651 1.33239 47.6831L2.74661 46.2689ZM1.5035 43.2C1.5035 41.9631 1.91558 40.9918 2.73141 40.21L1.34759 38.766C0.115424 39.9468 -0.4965 41.4502 -0.4965 43.2H1.5035ZM2.73203 40.2094C3.59372 39.3822 4.6811 38.952 6.0715 38.952V36.952C4.21924 36.952 2.61862 37.5458 1.34697 38.7666L2.73203 40.2094ZM6.0715 38.952C7.41128 38.952 8.44976 39.3765 9.26839 40.1951L10.6826 38.7809C9.45324 37.5515 7.88906 36.952 6.0715 36.952V38.952ZM9.2836 40.21C10.0994 40.9918 10.5115 41.9631 10.5115 43.2H12.5115C12.5115 41.4502 11.8996 39.9468 10.6674 38.766L9.2836 40.21ZM10.5115 43.2C10.5115 44.4374 10.0984 45.4389 9.26839 46.2689L10.6826 47.6831C11.9006 46.4651 12.5115 44.9493 12.5115 43.2H10.5115ZM9.28359 46.254C8.46746 47.0361 7.42403 47.448 6.0715 47.448V49.448C7.87631 49.448 9.43554 48.8785 10.6674 47.698L9.28359 46.254ZM21.6725 6.72L20.8313 6.17923L20.8274 6.18536L21.6725 6.72ZM48.2325 6.72L47.3874 7.25465L47.3913 7.26076L48.2325 6.72ZM48.2325 41.536L47.3888 40.9991L47.385 41.0052L48.2325 41.536ZM21.6725 41.536L20.825 42.0668L20.8288 42.0729L21.6725 41.536ZM42.7925 16.128L41.8077 16.3018L41.8097 16.313L41.8119 16.3241L42.7925 16.128ZM40.3605 10.816L39.6079 11.4745L39.6137 11.4811L39.6195 11.4875L40.3605 10.816ZM29.5445 10.816L28.8035 10.1445L28.7977 10.1509L28.7919 10.1575L29.5445 10.816ZM27.1125 16.128L26.1312 15.9356L26.1297 15.9432L26.1283 15.9508L27.1125 16.128ZM27.1125 32.256L26.1271 32.4265L26.1277 32.4298L27.1125 32.256ZM29.5445 37.568L28.8035 38.2395L28.8088 38.2454L28.8142 38.2512L29.5445 37.568ZM40.4245 37.568L41.1548 38.2512L41.1602 38.2454L41.1655 38.2395L40.4245 37.568ZM42.8565 32.256L43.8413 32.4298L43.8419 32.4265L42.8565 32.256ZM18.7045 24.064C18.7045 16.7849 20.0116 11.2156 22.5176 7.25464L20.8274 6.18536C18.0427 10.587 16.7045 16.5805 16.7045 24.064H18.7045ZM22.5137 7.26076C24.9715 3.4374 29.043 1.448 34.9845 1.448V-0.552002C28.5527 -0.552002 23.7495 1.63993 20.8313 6.17924L22.5137 7.26076ZM34.9845 1.448C40.9266 1.448 44.9724 3.43732 47.3874 7.25464L49.0776 6.18536C46.202 1.64001 41.4158 -0.552002 34.9845 -0.552002V1.448ZM47.3913 7.26076C49.9368 11.2204 51.2645 16.7871 51.2645 24.064H53.2645C53.2645 16.5782 51.9042 10.5822 49.0737 6.17924L47.3913 7.26076ZM51.2645 24.064C51.2645 31.384 49.9367 36.9954 47.3888 40.9991L49.0762 42.0729C51.9043 37.6286 53.2645 31.592 53.2645 24.064H51.2645ZM47.385 41.0052C44.968 44.8646 40.9223 46.872 34.9845 46.872V48.872C41.4201 48.872 46.2063 46.6554 49.08 42.0668L47.385 41.0052ZM34.9845 46.872C29.0472 46.872 24.9759 44.8644 22.5162 40.9991L20.8288 42.0729C23.7451 46.6555 28.5484 48.872 34.9845 48.872V46.872ZM22.52 41.0052C20.0118 37.0001 18.7045 31.3862 18.7045 24.064H16.7045C16.7045 31.5898 18.0426 37.6239 20.825 42.0668L22.52 41.0052ZM44.4325 24.064C44.4325 20.8675 44.217 18.1515 43.7731 15.9319L41.8119 16.3241C42.2213 18.3711 42.4325 20.9459 42.4325 24.064H44.4325ZM43.7773 15.9542C43.3671 13.6299 42.4886 11.6751 41.1015 10.1445L39.6195 11.4875C40.7071 12.6876 41.4499 14.274 41.8077 16.3018L43.7773 15.9542ZM41.1131 10.1575C39.6729 8.51153 37.5653 7.768 34.9845 7.768V9.768C37.1824 9.768 38.6588 10.3898 39.6079 11.4745L41.1131 10.1575ZM34.9845 7.768C32.4017 7.768 30.2828 8.51217 28.8035 10.1445L30.2855 11.4875C31.2809 10.3892 32.7887 9.768 34.9845 9.768V7.768ZM28.7919 10.1575C27.4581 11.6819 26.5842 13.625 26.1312 15.9356L28.0938 16.3204C28.4941 14.279 29.2416 12.6808 30.2971 11.4745L28.7919 10.1575ZM26.1283 15.9508C25.7302 18.1625 25.5365 20.8715 25.5365 24.064H27.5365C27.5365 20.9418 27.7268 18.3602 28.0967 16.3052L26.1283 15.9508ZM25.5365 24.064C25.5365 27.3412 25.7302 30.133 26.1271 32.4265L28.0979 32.0855C27.7268 29.9417 27.5365 27.2721 27.5365 24.064H25.5365ZM26.1277 32.4298C26.5379 34.754 27.4164 36.7089 28.8035 38.2395L30.2855 36.8965C29.1979 35.6964 28.4551 34.11 28.0973 32.0822L26.1277 32.4298ZM28.8142 38.2512C30.2958 39.8349 32.411 40.552 34.9845 40.552V38.552C32.7794 38.552 31.2679 37.9465 30.2748 36.8848L28.8142 38.2512ZM34.9845 40.552C37.558 40.552 39.6732 39.8349 41.1548 38.2512L39.6942 36.8848C38.7011 37.9465 37.1896 38.552 34.9845 38.552V40.552ZM41.1655 38.2395C42.5526 36.7089 43.4311 34.754 43.8413 32.4298L41.8717 32.0822C41.5139 34.11 40.7711 35.6964 39.6835 36.8965L41.1655 38.2395ZM43.8419 32.4265C44.2388 30.133 44.4325 27.3412 44.4325 24.064H42.4325C42.4325 27.2721 42.2422 29.9417 41.8712 32.0855L43.8419 32.4265ZM59.2075 13.632L58.2087 13.5821L58.1562 14.632H59.2075V13.632ZM63.6875 3.776L64.3265 4.54519L64.3277 4.54422L63.6875 3.776ZM82.7595 1.92L82.3123 2.81442L82.3192 2.81789L82.3262 2.82125L82.7595 1.92ZM87.7515 6.336L86.8906 6.84473L86.8974 6.85634L86.9046 6.86777L87.7515 6.336ZM87.3675 19.456L86.5675 18.856L86.5653 18.859L87.3675 19.456ZM82.4395 23.168L82.1233 22.2193L81.4395 22.4472V23.168H82.4395ZM82.4395 23.424H81.4395V24.1607L82.1431 24.3791L82.4395 23.424ZM88.1995 27.52L87.3786 28.0911L87.3827 28.097L87.387 28.1029L88.1995 27.52ZM88.5195 41.92L87.6604 41.4082L87.6563 41.415L87.6524 41.4219L88.5195 41.92ZM83.3355 46.656L83.7759 47.5538L83.7827 47.5504L83.3355 46.656ZM63.3675 44.672L62.7415 45.4518L63.3675 44.672ZM58.5675 33.92V32.92H57.5308L57.5681 33.956L58.5675 33.92ZM67.2715 33.92L68.2707 33.8792L68.2315 32.92H67.2715V33.92ZM69.3835 38.976L68.6881 39.6946L68.6998 39.706L68.712 39.717L69.3835 38.976ZM79.9435 39.04L79.2241 38.3454L79.2237 38.3459L79.9435 39.04ZM69.8955 27.136H68.8955V28.136H69.8955V27.136ZM69.8955 19.776V18.776H68.8955V19.776H69.8955ZM79.1755 9.408L78.483 10.1294L78.49 10.1362L78.4972 10.1428L79.1755 9.408ZM69.8315 9.536L70.5386 10.2431L69.8315 9.536ZM67.9755 13.632V14.632H68.8782L68.9703 13.734L67.9755 13.632ZM60.2063 13.6819C60.4084 9.63851 61.8083 6.63725 64.3265 4.54519L63.0485 3.00681C60.02 5.52275 58.4332 9.09215 58.2087 13.5821L60.2063 13.6819ZM64.3277 4.54422C66.9232 2.38125 70.369 1.256 74.7595 1.256V-0.744003C70.0194 -0.744003 66.0838 0.477409 63.0473 3.00778L64.3277 4.54422ZM74.7595 1.256C77.7576 1.256 80.2634 1.78998 82.3123 2.81442L83.2067 1.02557C80.8183 -0.168648 77.9907 -0.744003 74.7595 -0.744003V1.256ZM82.3262 2.82125C84.3904 3.81366 85.8945 5.159 86.8906 6.84473L88.6124 5.82727C87.3899 3.75833 85.5659 2.15967 83.1928 1.01875L82.3262 2.82125ZM86.9046 6.86777C87.9482 8.52986 88.4795 10.4332 88.4795 12.608H90.4795C90.4795 10.0895 89.8587 7.81147 88.5984 5.80423L86.9046 6.86777ZM88.4795 12.608C88.4795 15.1125 87.8273 17.1763 86.5675 18.856L88.1675 20.056C89.7237 17.981 90.4795 15.4795 90.4795 12.608H88.4795ZM86.5653 18.859C85.3056 20.5516 83.8244 21.6523 82.1233 22.2193L82.7557 24.1167C84.8946 23.4037 86.6987 22.0297 88.1697 20.053L86.5653 18.859ZM81.4395 23.168V23.424H83.4395V23.168H81.4395ZM82.1431 24.3791C84.424 25.0869 86.1514 26.3269 87.3786 28.0911L89.0204 26.9489C87.517 24.7878 85.4043 23.2971 82.7359 22.4689L82.1431 24.3791ZM87.387 28.1029C88.6435 29.8545 89.3115 32.1521 89.3115 35.072H91.3115C91.3115 31.8479 90.5714 29.1108 89.012 26.9371L87.387 28.1029ZM89.3115 35.072C89.3115 37.4698 88.7541 39.5724 87.6604 41.4082L89.3786 42.4318C90.6743 40.2569 91.3115 37.7942 91.3115 35.072H89.3115ZM87.6524 41.4219C86.6093 43.2376 85.0372 44.6871 82.8883 45.7616L83.7827 47.5504C86.2418 46.3209 88.1257 44.6131 89.3866 42.4181L87.6524 41.4219ZM82.8951 45.7582C80.8028 46.7846 78.2309 47.32 75.1435 47.32V49.32C78.4561 49.32 81.3456 48.746 83.7759 47.5538L82.8951 45.7582ZM75.1435 47.32C70.4935 47.32 66.8059 46.15 63.9935 43.8922L62.7415 45.4518C65.9878 48.058 70.1508 49.32 75.1435 49.32V47.32ZM63.9935 43.8922C61.24 41.6816 59.7296 38.3992 59.5669 33.884L57.5681 33.956C57.7468 38.9128 59.4363 42.7984 62.7415 45.4518L63.9935 43.8922ZM58.5675 34.92H67.2715V32.92H58.5675V34.92ZM66.2723 33.9608C66.3666 36.2701 67.1553 38.2113 68.6881 39.6946L70.0789 38.2574C68.9663 37.1807 68.3471 35.7512 68.2707 33.8792L66.2723 33.9608ZM68.712 39.717C70.3074 41.1628 72.4268 41.832 74.9515 41.832V39.832C72.7828 39.832 71.1903 39.2638 70.055 38.235L68.712 39.717ZM74.9515 41.832C77.3107 41.832 79.2693 41.1798 80.6633 39.7341L79.2237 38.3459C78.3137 39.2895 76.9443 39.832 74.9515 39.832V41.832ZM80.6629 39.7346C82.0591 38.2885 82.7355 36.4503 82.7355 34.304H80.7355C80.7355 35.9977 80.2172 37.3168 79.2241 38.3454L80.6629 39.7346ZM82.7355 34.304C82.7355 31.5252 81.8424 29.3255 79.8682 27.9747L78.7388 29.6253C80.0072 30.4932 80.7355 31.9628 80.7355 34.304H82.7355ZM79.8682 27.9747C77.9977 26.6949 75.2349 26.136 71.7515 26.136V28.136C75.0948 28.136 77.3666 28.6864 78.7388 29.6253L79.8682 27.9747ZM71.7515 26.136H69.8955V28.136H71.7515V26.136ZM70.8955 27.136V19.776H68.8955V27.136H70.8955ZM69.8955 20.776H71.7515V18.776H69.8955V20.776ZM71.7515 20.776C74.8608 20.776 77.3679 20.2617 79.1236 19.0871C80.9503 17.865 81.8395 16.0125 81.8395 13.696H79.8395C79.8395 15.4329 79.214 16.6203 78.0115 17.4249C76.7377 18.277 74.7009 18.776 71.7515 18.776V20.776ZM81.8395 13.696C81.8395 11.6471 81.2114 9.92643 79.8538 8.67319L78.4972 10.1428C79.3582 10.9376 79.8395 12.0756 79.8395 13.696H81.8395ZM79.868 8.68661C78.5534 7.42452 76.709 6.872 74.5035 6.872V8.872C76.394 8.872 77.6643 9.34347 78.483 10.1294L79.868 8.68661ZM74.5035 6.872C72.3103 6.872 70.4697 7.48361 69.1244 8.82889L70.5386 10.2431C71.412 9.36972 72.686 8.872 74.5035 8.872V6.872ZM69.1244 8.82889C67.8772 10.0761 67.1721 11.6637 66.9807 13.53L68.9703 13.734C69.1202 12.2723 69.6524 11.1293 70.5386 10.2431L69.1244 8.82889ZM67.9755 12.632H59.2075V14.632H67.9755V12.632Z" fill="url(#paint0_linear_463_1150)" mask="url(#path-1-outside-1_463_1150)"/>
<defs>
<linearGradient id="paint0_linear_463_1150" x1="45.5" y1="-22" x2="45.5" y2="74" gradientUnits="userSpaceOnUse">
<stop stop-color="white"/>
<stop offset="1" stop-opacity="0"/>
</linearGradient>
</defs>
</svg>
