<svg width="96" height="49" viewBox="0 0 96 49" fill="none" xmlns="http://www.w3.org/2000/svg">
<mask id="path-1-outside-1_463_1151" maskUnits="userSpaceOnUse" x="-1" y="-1" width="98" height="51" fill="black">
<rect fill="white" x="-1" y="-1" width="98" height="51"/>
<path d="M6.0715 48.448C4.45017 48.448 3.10617 47.9573 2.0395 46.976C1.0155 45.952 0.5035 44.6933 0.5035 43.2C0.5035 41.7067 1.0155 40.4693 2.0395 39.488C3.10617 38.464 4.45017 37.952 6.0715 37.952C7.65017 37.952 8.9515 38.464 9.9755 39.488C10.9995 40.4693 11.5115 41.7067 11.5115 43.2C11.5115 44.6933 10.9995 45.952 9.9755 46.976C8.9515 47.9573 7.65017 48.448 6.0715 48.448ZM17.7045 24.064C17.7045 16.6827 19.0272 10.9013 21.6725 6.72C24.3605 2.53866 28.7978 0.447998 34.9845 0.447998C41.1712 0.447998 45.5872 2.53866 48.2325 6.72C50.9205 10.9013 52.2645 16.6827 52.2645 24.064C52.2645 31.488 50.9205 37.312 48.2325 41.536C45.5872 45.76 41.1712 47.872 34.9845 47.872C28.7978 47.872 24.3605 45.76 21.6725 41.536C19.0272 37.312 17.7045 31.488 17.7045 24.064ZM43.4325 24.064C43.4325 20.9067 43.2192 18.2613 42.7925 16.128C42.4085 13.952 41.5978 12.1813 40.3605 10.816C39.1658 9.45066 37.3738 8.768 34.9845 8.768C32.5952 8.768 30.7818 9.45066 29.5445 10.816C28.3498 12.1813 27.5392 13.952 27.1125 16.128C26.7285 18.2613 26.5365 20.9067 26.5365 24.064C26.5365 27.3067 26.7285 30.0373 27.1125 32.256C27.4965 34.432 28.3072 36.2027 29.5445 37.568C30.7818 38.8907 32.5952 39.552 34.9845 39.552C37.3738 39.552 39.1872 38.8907 40.4245 37.568C41.6618 36.2027 42.4725 34.432 42.8565 32.256C43.2405 30.0373 43.4325 27.3067 43.4325 24.064ZM58.6955 38.912V31.872L79.6235 1.92H90.0555V31.104H95.6875V38.912H90.0555V48H81.0955V38.912H58.6955ZM81.6715 11.52L68.5515 31.104H81.6715V11.52Z"/>
</mask>
<path d="M2.0395 46.976L1.33239 47.6831L1.34712 47.6978L1.36244 47.7119L2.0395 46.976ZM2.0395 39.488L2.73141 40.21L2.73203 40.2094L2.0395 39.488ZM9.9755 39.488L9.26839 40.1951L9.27592 40.2026L9.2836 40.21L9.9755 39.488ZM9.9755 46.976L10.6674 47.698L10.6751 47.6906L10.6826 47.6831L9.9755 46.976ZM6.0715 47.448C4.66886 47.448 3.57629 47.031 2.71656 46.2401L1.36244 47.7119C2.63604 48.8836 4.23147 49.448 6.0715 49.448V47.448ZM2.74661 46.2689C1.91659 45.4389 1.5035 44.4374 1.5035 43.2H-0.4965C-0.4965 44.9493 0.114415 46.4651 1.33239 47.6831L2.74661 46.2689ZM1.5035 43.2C1.5035 41.9631 1.91558 40.9918 2.73141 40.21L1.34759 38.766C0.115424 39.9468 -0.4965 41.4502 -0.4965 43.2H1.5035ZM2.73203 40.2094C3.59372 39.3822 4.6811 38.952 6.0715 38.952V36.952C4.21924 36.952 2.61862 37.5458 1.34697 38.7666L2.73203 40.2094ZM6.0715 38.952C7.41128 38.952 8.44976 39.3765 9.26839 40.1951L10.6826 38.7809C9.45324 37.5515 7.88906 36.952 6.0715 36.952V38.952ZM9.2836 40.21C10.0994 40.9918 10.5115 41.9631 10.5115 43.2H12.5115C12.5115 41.4502 11.8996 39.9468 10.6674 38.766L9.2836 40.21ZM10.5115 43.2C10.5115 44.4374 10.0984 45.4389 9.26839 46.2689L10.6826 47.6831C11.9006 46.4651 12.5115 44.9493 12.5115 43.2H10.5115ZM9.28359 46.254C8.46746 47.0361 7.42403 47.448 6.0715 47.448V49.448C7.87631 49.448 9.43554 48.8785 10.6674 47.698L9.28359 46.254ZM21.6725 6.72L20.8313 6.17923L20.8274 6.18536L21.6725 6.72ZM48.2325 6.72L47.3874 7.25465L47.3913 7.26076L48.2325 6.72ZM48.2325 41.536L47.3888 40.9991L47.385 41.0052L48.2325 41.536ZM21.6725 41.536L20.825 42.0668L20.8288 42.0729L21.6725 41.536ZM42.7925 16.128L41.8077 16.3018L41.8097 16.313L41.8119 16.3241L42.7925 16.128ZM40.3605 10.816L39.6079 11.4745L39.6137 11.4811L39.6195 11.4875L40.3605 10.816ZM29.5445 10.816L28.8035 10.1445L28.7977 10.1509L28.7919 10.1575L29.5445 10.816ZM27.1125 16.128L26.1312 15.9356L26.1297 15.9432L26.1283 15.9508L27.1125 16.128ZM27.1125 32.256L26.1271 32.4265L26.1277 32.4298L27.1125 32.256ZM29.5445 37.568L28.8035 38.2395L28.8088 38.2454L28.8142 38.2512L29.5445 37.568ZM40.4245 37.568L41.1548 38.2512L41.1602 38.2454L41.1655 38.2395L40.4245 37.568ZM42.8565 32.256L43.8413 32.4298L43.8419 32.4265L42.8565 32.256ZM18.7045 24.064C18.7045 16.7849 20.0116 11.2156 22.5176 7.25464L20.8274 6.18536C18.0427 10.587 16.7045 16.5805 16.7045 24.064H18.7045ZM22.5137 7.26076C24.9715 3.4374 29.043 1.448 34.9845 1.448V-0.552002C28.5527 -0.552002 23.7495 1.63993 20.8313 6.17924L22.5137 7.26076ZM34.9845 1.448C40.9266 1.448 44.9724 3.43732 47.3874 7.25464L49.0776 6.18536C46.202 1.64001 41.4158 -0.552002 34.9845 -0.552002V1.448ZM47.3913 7.26076C49.9368 11.2204 51.2645 16.7871 51.2645 24.064H53.2645C53.2645 16.5782 51.9042 10.5822 49.0737 6.17924L47.3913 7.26076ZM51.2645 24.064C51.2645 31.384 49.9367 36.9954 47.3888 40.9991L49.0762 42.0729C51.9043 37.6286 53.2645 31.592 53.2645 24.064H51.2645ZM47.385 41.0052C44.968 44.8646 40.9223 46.872 34.9845 46.872V48.872C41.4201 48.872 46.2063 46.6554 49.08 42.0668L47.385 41.0052ZM34.9845 46.872C29.0472 46.872 24.9759 44.8644 22.5162 40.9991L20.8288 42.0729C23.7451 46.6555 28.5484 48.872 34.9845 48.872V46.872ZM22.52 41.0052C20.0118 37.0001 18.7045 31.3862 18.7045 24.064H16.7045C16.7045 31.5898 18.0426 37.6239 20.825 42.0668L22.52 41.0052ZM44.4325 24.064C44.4325 20.8675 44.217 18.1515 43.7731 15.9319L41.8119 16.3241C42.2213 18.3711 42.4325 20.9459 42.4325 24.064H44.4325ZM43.7773 15.9542C43.3671 13.6299 42.4886 11.6751 41.1015 10.1445L39.6195 11.4875C40.7071 12.6876 41.4499 14.274 41.8077 16.3018L43.7773 15.9542ZM41.1131 10.1575C39.6729 8.51153 37.5653 7.768 34.9845 7.768V9.768C37.1824 9.768 38.6588 10.3898 39.6079 11.4745L41.1131 10.1575ZM34.9845 7.768C32.4017 7.768 30.2828 8.51217 28.8035 10.1445L30.2855 11.4875C31.2809 10.3892 32.7887 9.768 34.9845 9.768V7.768ZM28.7919 10.1575C27.4581 11.6819 26.5842 13.625 26.1312 15.9356L28.0938 16.3204C28.4941 14.279 29.2416 12.6808 30.2971 11.4745L28.7919 10.1575ZM26.1283 15.9508C25.7302 18.1625 25.5365 20.8715 25.5365 24.064H27.5365C27.5365 20.9418 27.7268 18.3602 28.0967 16.3052L26.1283 15.9508ZM25.5365 24.064C25.5365 27.3412 25.7302 30.133 26.1271 32.4265L28.0979 32.0855C27.7268 29.9417 27.5365 27.2721 27.5365 24.064H25.5365ZM26.1277 32.4298C26.5379 34.754 27.4164 36.7089 28.8035 38.2395L30.2855 36.8965C29.1979 35.6964 28.4551 34.11 28.0973 32.0822L26.1277 32.4298ZM28.8142 38.2512C30.2958 39.8349 32.411 40.552 34.9845 40.552V38.552C32.7794 38.552 31.2679 37.9465 30.2748 36.8848L28.8142 38.2512ZM34.9845 40.552C37.558 40.552 39.6732 39.8349 41.1548 38.2512L39.6942 36.8848C38.7011 37.9465 37.1896 38.552 34.9845 38.552V40.552ZM41.1655 38.2395C42.5526 36.7089 43.4311 34.754 43.8413 32.4298L41.8717 32.0822C41.5139 34.11 40.7711 35.6964 39.6835 36.8965L41.1655 38.2395ZM43.8419 32.4265C44.2388 30.133 44.4325 27.3412 44.4325 24.064H42.4325C42.4325 27.2721 42.2422 29.9417 41.8712 32.0855L43.8419 32.4265ZM58.6955 38.912H57.6955V39.912H58.6955V38.912ZM58.6955 31.872L57.8758 31.2992L57.6955 31.5573V31.872H58.6955ZM79.6235 1.92V0.919998H79.1023L78.8038 1.34724L79.6235 1.92ZM90.0555 1.92H91.0555V0.919998H90.0555V1.92ZM90.0555 31.104H89.0555V32.104H90.0555V31.104ZM95.6875 31.104H96.6875V30.104H95.6875V31.104ZM95.6875 38.912V39.912H96.6875V38.912H95.6875ZM90.0555 38.912V37.912H89.0555V38.912H90.0555ZM90.0555 48V49H91.0555V48H90.0555ZM81.0955 48H80.0955V49H81.0955V48ZM81.0955 38.912H82.0955V37.912H81.0955V38.912ZM81.6715 11.52H82.6715V8.23062L80.8407 10.9634L81.6715 11.52ZM68.5515 31.104L67.7207 30.5474L66.6779 32.104H68.5515V31.104ZM81.6715 31.104V32.104H82.6715V31.104H81.6715ZM59.6955 38.912V31.872H57.6955V38.912H59.6955ZM59.5152 32.4448L80.4432 2.49276L78.8038 1.34724L57.8758 31.2992L59.5152 32.4448ZM79.6235 2.92H90.0555V0.919998H79.6235V2.92ZM89.0555 1.92V31.104H91.0555V1.92H89.0555ZM90.0555 32.104H95.6875V30.104H90.0555V32.104ZM94.6875 31.104V38.912H96.6875V31.104H94.6875ZM95.6875 37.912H90.0555V39.912H95.6875V37.912ZM89.0555 38.912V48H91.0555V38.912H89.0555ZM90.0555 47H81.0955V49H90.0555V47ZM82.0955 48V38.912H80.0955V48H82.0955ZM81.0955 37.912H58.6955V39.912H81.0955V37.912ZM80.8407 10.9634L67.7207 30.5474L69.3823 31.6606L82.5023 12.0766L80.8407 10.9634ZM68.5515 32.104H81.6715V30.104H68.5515V32.104ZM82.6715 31.104V11.52H80.6715V31.104H82.6715Z" fill="url(#paint0_linear_463_1151)" mask="url(#path-1-outside-1_463_1151)"/>
<defs>
<linearGradient id="paint0_linear_463_1151" x1="47.5" y1="-22" x2="47.5" y2="74" gradientUnits="userSpaceOnUse">
<stop stop-color="white"/>
<stop offset="1" stop-opacity="0"/>
</linearGradient>
</defs>
</svg>
