<svg width="247" height="1027" viewBox="0 0 247 1027" fill="none" xmlns="http://www.w3.org/2000/svg">
<path fill-rule="evenodd" clip-rule="evenodd" d="M1.09255 570.585L-21.0391 530.673L-3.87687 530.673L-13.1254 518L-49 518L0.960651 601.559L0.960651 602L1.09255 601.779L1.22445 602L1.22445 601.559L51.1851 518L15.3105 518L6.06196 530.673L23.2241 530.673L1.09255 570.585Z" fill="#00CFCD"/>
<path fill-rule="evenodd" clip-rule="evenodd" d="M1.22215 457.415L23.3537 497.327H6.19156L15.4401 510H51.3147L1.35405 426.441V426L1.22215 426.221L1.09025 426V426.441L-48.8704 510H-12.9958L-3.74726 497.327H-20.9095L1.22215 457.415Z" fill="white" fill-opacity="0.05"/>
<path fill-rule="evenodd" clip-rule="evenodd" d="M77.7668 587.891L54.691 548.517L45.95 563.287L39.7545 548.873L58.0261 518L104.489 603.553L104.869 603.778L104.612 603.779L104.734 604.005L104.355 603.78L7.00006 604.217L25.2716 573.344L40.8879 571.84L32.1469 586.609L77.7668 587.891Z" fill="white" fill-opacity="0.05"/>
<path fill-rule="evenodd" clip-rule="evenodd" d="M-37.2333 440.109L-60.309 479.483L-69.0501 464.713L-75.2455 479.127L-56.974 510L-10.5109 424.447L-10.1312 424.222L-10.3882 424.221L-10.2655 423.995L-10.6452 424.22L-108 423.783L-89.7284 454.656L-74.1121 456.16L-82.8531 441.391L-37.2333 440.109Z" fill="white" fill-opacity="0.05"/>
<path fill-rule="evenodd" clip-rule="evenodd" d="M116.222 457.415L138.354 497.327L121.192 497.327L130.44 510L166.315 510L116.354 426.441L116.354 426L116.222 426.221L116.09 426L116.09 426.441L66.1296 510L102.004 510L111.253 497.327L94.0906 497.327L116.222 457.415Z" fill="white" fill-opacity="0.05"/>
<path fill-rule="evenodd" clip-rule="evenodd" d="M116.093 570.585L93.961 530.673L111.123 530.673L101.875 518L66 518L115.961 601.559L115.961 602L116.093 601.779L116.224 602L116.224 601.559L166.185 518L130.31 518L121.062 530.673L138.224 530.673L116.093 570.585Z" fill="white" fill-opacity="0.05"/>
<path fill-rule="evenodd" clip-rule="evenodd" d="M193.767 440.109L170.691 479.483L161.95 464.713L155.755 479.127L174.026 510L220.489 424.447L220.869 424.222L220.612 424.221L220.734 423.995L220.355 424.22L123 423.783L141.272 454.656L156.888 456.16L148.147 441.391L193.767 440.109Z" fill="#00CFCD"/>
<path fill-rule="evenodd" clip-rule="evenodd" d="M39.5479 440.109L62.6237 479.483L71.3647 464.713L77.5602 479.127L59.2887 510L12.8255 424.447L12.4459 424.222L12.7029 424.221L12.5802 423.995L12.9599 424.22L110.315 423.783L92.0431 454.656L76.4268 456.16L85.1678 441.391L39.5479 440.109Z" fill="white" fill-opacity="0.05"/>
<path fill-rule="evenodd" clip-rule="evenodd" d="M0.907475 647.415L23.0391 687.327H5.87689L15.1254 700H51L1.03937 616.441V616L0.907475 616.221L0.775578 616V616.441L-49.185 700H-13.3105L-4.06194 687.327H-21.2241L0.907475 647.415Z" fill="white" fill-opacity="0.05"/>
<path fill-rule="evenodd" clip-rule="evenodd" d="M0.777861 760.585L-21.3537 720.673L-4.19155 720.673L-13.4401 708L-49.3147 708L0.645962 791.559L0.645962 792L0.777859 791.779L0.909756 792L0.909756 791.559L50.8704 708L14.9958 708L5.74728 720.673L22.9095 720.673L0.777861 760.585Z" fill="white" fill-opacity="0.05"/>
<path fill-rule="evenodd" clip-rule="evenodd" d="M78.4521 630.109L55.3763 669.483L46.6353 654.713L40.4398 669.127L58.7114 700L105.174 614.447L105.554 614.222L105.297 614.221L105.42 613.995L105.04 614.22L7.68538 613.783L25.9569 644.656L41.5733 646.16L32.8323 631.391L78.4521 630.109Z" fill="white" fill-opacity="0.05"/>
<path fill-rule="evenodd" clip-rule="evenodd" d="M116.778 760.585L94.6463 720.673L111.808 720.673L102.56 708L66.6854 708L116.646 791.559L116.646 792L116.778 791.78L116.91 792L116.91 791.559L166.87 708L130.996 708L121.747 720.673L138.909 720.673L116.778 760.585Z" fill="white" fill-opacity="0.05"/>
<path fill-rule="evenodd" clip-rule="evenodd" d="M116.907 647.415L139.039 687.327H121.877L131.125 700H167L117.039 616.441V616L116.907 616.221L116.776 616V616.441L66.815 700H102.69L111.938 687.327H94.7759L116.907 647.415Z" fill="white" fill-opacity="0.05"/>
<path fill-rule="evenodd" clip-rule="evenodd" d="M116.907 647.415L139.039 687.327H121.877L131.125 700H167L117.039 616.441V616L116.907 616.221L116.776 616V616.441L66.815 700H102.69L111.938 687.327H94.7759L116.907 647.415Z" fill="#00CFCD"/>
<path fill-rule="evenodd" clip-rule="evenodd" d="M39.2333 777.891L62.3091 738.517L71.0501 753.287L77.2455 738.873L58.974 708L12.5109 793.553L12.1312 793.778L12.3882 793.779L12.2655 794.005L12.6452 793.78L110 794.217L91.7284 763.345L76.1121 761.84L84.8531 776.609L39.2333 777.891Z" fill="white" fill-opacity="0.05"/>
<path fill-rule="evenodd" clip-rule="evenodd" d="M193.452 777.891L170.376 738.517L161.635 753.287L155.44 738.873L173.711 708L220.174 793.553L220.554 793.778L220.297 793.779L220.42 794.005L220.04 793.78L122.685 794.217L140.957 763.345L156.573 761.84L147.832 776.609L193.452 777.891Z" fill="white" fill-opacity="0.05"/>
<path fill-rule="evenodd" clip-rule="evenodd" d="M-37.5479 777.891L-60.6237 738.517L-69.3647 753.287L-75.5602 738.873L-57.2886 708L-10.8255 793.553L-10.4458 793.778L-10.7029 793.779L-10.5802 794.005L-10.9599 793.78L-108.315 794.217L-90.0431 763.344L-74.4267 761.84L-83.1677 776.609L-37.5479 777.891Z" fill="white" fill-opacity="0.05"/>
<path fill-rule="evenodd" clip-rule="evenodd" d="M0.536846 837.415L22.6684 877.327H5.50626L14.7548 890H50.6294L0.668743 806.441V806L0.536846 806.221L0.404949 806V806.441L-49.5557 890H-13.6811L-4.43257 877.327H-21.5948L0.536846 837.415Z" fill="white" fill-opacity="0.05"/>
<path fill-rule="evenodd" clip-rule="evenodd" d="M-37.9186 820.109L-60.9944 859.483L-69.7354 844.713L-75.9308 859.127L-57.6593 890L-11.1962 804.447L-10.8165 804.222L-11.0735 804.221L-10.9508 803.995L-11.3305 804.22L-108.685 803.783L-90.4137 834.656L-74.7974 836.16L-83.5384 821.391L-37.9186 820.109Z" fill="white" fill-opacity="0.05"/>
<path fill-rule="evenodd" clip-rule="evenodd" d="M115.537 837.415L137.668 877.327L120.506 877.327L129.755 890L165.629 890L115.669 806.441L115.669 806L115.537 806.221L115.405 806L115.405 806.441L65.4443 890L101.319 890L110.567 877.327L93.4053 877.327L115.537 837.415Z" fill="white" fill-opacity="0.05"/>
<path fill-rule="evenodd" clip-rule="evenodd" d="M193.081 820.109L170.006 859.483L161.265 844.713L155.069 859.127L173.341 890L219.804 804.447L220.184 804.222L219.927 804.221L220.049 803.995L219.669 804.22L122.315 803.783L140.586 834.656L156.203 836.16L147.462 821.391L193.081 820.109Z" fill="white" fill-opacity="0.05"/>
<path fill-rule="evenodd" clip-rule="evenodd" d="M38.8626 820.109L61.9384 859.483L70.6794 844.713L76.8749 859.127L58.6033 890L12.1402 804.447L11.7605 804.222L12.0176 804.221L11.8949 803.995L12.2746 804.22L109.629 803.783L91.3578 834.656L75.7414 836.16L84.4824 821.391L38.8626 820.109Z" fill="white" fill-opacity="0.05"/>
<path fill-rule="evenodd" clip-rule="evenodd" d="M38.8626 820.109L61.9384 859.483L70.6794 844.713L76.8749 859.127L58.6033 890L12.1402 804.447L11.7605 804.222L12.0176 804.221L11.8949 803.995L12.2746 804.22L109.629 803.783L91.3578 834.656L75.7414 836.16L84.4824 821.391L38.8626 820.109Z" fill="#00CFCD"/>
<path fill-rule="evenodd" clip-rule="evenodd" d="M1.40724 189.585L-20.7244 149.673L-3.56217 149.673L-12.8107 137L-48.6853 137L1.27535 220.559L1.27535 221L1.40725 220.779L1.53914 221L1.53914 220.559L51.4998 137L15.6252 137L6.37665 149.673L23.5388 149.673L1.40724 189.585Z" fill="white" fill-opacity="0.05"/>
<path fill-rule="evenodd" clip-rule="evenodd" d="M1.53685 76.4148L23.6684 116.327H6.50626L15.7548 129H51.6294L1.66874 45.4412V45L1.53685 45.2206L1.40495 45V45.4412L-48.5557 129H-12.6811L-3.43257 116.327L-20.5948 116.327L1.53685 76.4148Z" fill="white" fill-opacity="0.05"/>
<path fill-rule="evenodd" clip-rule="evenodd" d="M78.0815 206.891L55.0057 167.517L46.2647 182.287L40.0692 167.873L58.3408 137L104.804 222.553L105.184 222.778L104.927 222.779L105.049 223.005L104.67 222.78L7.31476 223.217L25.5863 192.344L41.2026 190.84L32.4616 205.609L78.0815 206.891Z" fill="white" fill-opacity="0.05"/>
<path fill-rule="evenodd" clip-rule="evenodd" d="M-36.9186 59.1086L-59.9944 98.4827L-68.7354 83.7133L-74.9308 98.1269L-56.6593 129L-10.1962 43.4468L-9.81649 43.222L-10.0735 43.2209L-9.95085 42.995L-10.3305 43.2197L-107.685 42.7827L-89.4137 73.6556L-73.7974 75.1602L-82.5384 60.3908L-36.9186 59.1086Z" fill="white" fill-opacity="0.05"/>
<path fill-rule="evenodd" clip-rule="evenodd" d="M116.537 76.4148L138.668 116.327L121.506 116.327L130.755 129L166.629 129L116.669 45.4412L116.669 45L116.537 45.2206L116.405 45L116.405 45.4412L66.4443 129L102.319 129L111.567 116.327L94.4053 116.327L116.537 76.4148Z" fill="white" fill-opacity="0.05"/>
<path fill-rule="evenodd" clip-rule="evenodd" d="M116.407 189.585L94.2757 149.673L111.438 149.673L102.189 137L66.3147 137L116.275 220.559L116.275 221L116.407 220.779L116.539 221L116.539 220.559L166.5 137L130.625 137L121.377 149.673L138.539 149.673L116.407 189.585Z" fill="white" fill-opacity="0.05"/>
<path fill-rule="evenodd" clip-rule="evenodd" d="M194.081 59.1086L171.006 98.4827L162.265 83.7133L156.069 98.1269L174.341 129L220.804 43.4468L221.184 43.222L220.927 43.2209L221.049 42.995L220.669 43.2197L123.315 42.7827L141.586 73.6556L157.203 75.1602L148.462 60.3908L194.081 59.1086Z" fill="white" fill-opacity="0.05"/>
<path fill-rule="evenodd" clip-rule="evenodd" d="M39.8626 59.1087L62.9384 98.4828L71.6794 83.7133L77.8749 98.1269L59.6033 129L13.1402 43.4468L12.7605 43.2221L13.0176 43.2209L12.8949 42.9951L13.2746 43.2198L110.629 42.7827L92.3578 73.6556L76.7415 75.1602L85.4825 60.3908L39.8626 59.1087Z" fill="white" fill-opacity="0.05"/>
<path fill-rule="evenodd" clip-rule="evenodd" d="M1.22217 266.415L23.3538 306.327H6.19159L15.4401 319H51.3147L1.35407 235.441V235L1.22217 235.221L1.09027 235V235.441L-48.8703 319H-12.9958L-3.74724 306.327H-20.9094L1.22217 266.415Z" fill="white" fill-opacity="0.05"/>
<path fill-rule="evenodd" clip-rule="evenodd" d="M1.09256 379.585L-21.039 339.673L-3.87685 339.673L-13.1254 327L-49 327L0.960659 410.559L0.960659 411L1.09256 410.779L1.22445 411L1.22445 410.559L51.1851 327L15.3105 327L6.06198 339.673L23.2242 339.673L1.09256 379.585Z" fill="white" fill-opacity="0.05"/>
<path fill-rule="evenodd" clip-rule="evenodd" d="M78.7668 249.109L55.691 288.483L46.95 273.713L40.7545 288.127L59.0261 319L105.489 233.447L105.869 233.222L105.612 233.221L105.735 232.995L105.355 233.22L8.00008 232.783L26.2716 263.656L41.888 265.16L33.147 250.391L78.7668 249.109Z" fill="white" fill-opacity="0.05"/>
<path fill-rule="evenodd" clip-rule="evenodd" d="M117.093 379.585L94.961 339.673L112.123 339.673L102.875 327L67.0001 327L116.961 410.559L116.961 411L117.093 410.78L117.224 411L117.224 410.559L167.185 327L131.311 327L122.062 339.673L139.224 339.673L117.093 379.585Z" fill="white" fill-opacity="0.05"/>
<path fill-rule="evenodd" clip-rule="evenodd" d="M117.222 266.415L139.354 306.327H122.192L131.44 319H167.315L117.354 235.441V235L117.222 235.221L117.09 235V235.441L67.1297 319H103.004L112.253 306.327H95.0906L117.222 266.415Z" fill="#00CFCD"/>
<path fill-rule="evenodd" clip-rule="evenodd" d="M39.548 396.891L62.6238 357.517L71.3648 372.287L77.5602 357.873L59.2887 327L12.8256 412.553L12.4459 412.778L12.7029 412.779L12.5802 413.005L12.9599 412.78L110.315 413.217L92.0431 382.345L76.4268 380.84L85.1678 395.609L39.548 396.891Z" fill="white" fill-opacity="0.05"/>
<path fill-rule="evenodd" clip-rule="evenodd" d="M193.767 396.891L170.691 357.517L161.95 372.287L155.755 357.873L174.026 327L220.489 412.553L220.869 412.778L220.612 412.779L220.735 413.005L220.355 412.78L123 413.217L141.272 382.344L156.888 380.84L148.147 395.609L193.767 396.891Z" fill="white" fill-opacity="0.05"/>
<path fill-rule="evenodd" clip-rule="evenodd" d="M-37.2332 396.891L-60.309 357.517L-69.05 372.287L-75.2455 357.873L-56.9739 327L-10.5108 412.553L-10.1311 412.778L-10.3882 412.779L-10.2655 413.005L-10.6452 412.78L-108 413.217L-89.7284 382.344L-74.112 380.84L-82.8531 395.609L-37.2332 396.891Z" fill="white" fill-opacity="0.05"/>
</svg>
