<svg width="61" height="55" viewBox="0 0 61 55" fill="none" xmlns="http://www.w3.org/2000/svg">
<g filter="url(#filter0_d_329_3517)">
<path d="M42.4918 23.6702L34.0917 22.9141L30.7549 15.3949C30.5213 14.8684 29.752 14.8684 29.5184 15.3949L26.1817 22.9142L17.7815 23.6702C17.1933 23.7231 16.9556 24.4331 17.3994 24.8114L23.7373 30.2147L21.8825 38.2013C21.7527 38.7604 22.375 39.1992 22.8829 38.9065L30.1367 34.7266L37.3905 38.9065C37.8984 39.1992 38.5207 38.7604 38.3909 38.2013L36.536 30.2147L42.874 24.8114C43.3177 24.4331 43.08 23.7231 42.4918 23.6702Z" fill="#FFDC64"/>
</g>
<path d="M30.9004 15.3949C30.6643 14.8684 29.8868 14.8684 29.6507 15.3949L26.2782 22.9142L17.7881 23.6702C17.1936 23.7231 16.9533 24.4331 17.4019 24.8114L23.8077 30.2147L21.933 38.2013C21.8018 38.7604 22.4307 39.1992 22.9441 38.9065L24.5804 37.9736C24.8069 29.0224 29.1385 22.7188 32.568 19.1128L30.9004 15.3949Z" fill="#FFC850"/>
<defs>
<filter id="filter0_d_329_3517" x="-7.83038" y="-10" width="75.9341" height="74" filterUnits="userSpaceOnUse" color-interpolation-filters="sRGB">
<feFlood flood-opacity="0" result="BackgroundImageFix"/>
<feColorMatrix in="SourceAlpha" type="matrix" values="0 0 0 0 0 0 0 0 0 0 0 0 0 0 0 0 0 0 127 0" result="hardAlpha"/>
<feOffset/>
<feGaussianBlur stdDeviation="12.5"/>
<feComposite in2="hardAlpha" operator="out"/>
<feColorMatrix type="matrix" values="0 0 0 0 0 0 0 0 0 0.517647 0 0 0 0 0.592157 0 0 0 0.25 0"/>
<feBlend mode="normal" in2="BackgroundImageFix" result="effect1_dropShadow_329_3517"/>
<feBlend mode="normal" in="SourceGraphic" in2="effect1_dropShadow_329_3517" result="shape"/>
</filter>
</defs>
</svg>
