<svg width="1185" height="255" viewBox="0 0 1185 255" fill="none" xmlns="http://www.w3.org/2000/svg">
<path d="M127.842 156.143H58.4951L47.3784 187.575H0L67.2297 9.6322H119.637L186.867 187.575H138.959L127.842 156.143ZM116.196 122.684L93.1687 57.5398L70.4059 122.684H116.196Z" fill="url(#paint0_linear_322_3058)"/>
<path d="M236.708 154.115H295.997V187.575H191.447V9.6322H236.708V154.115Z" fill="url(#paint1_linear_322_3058)"/>
<path d="M346.965 66.1581C351.377 59.5676 357.465 54.2445 365.229 50.1889C372.993 46.1332 382.08 44.1054 392.491 44.1054C404.667 44.1054 415.695 47.0626 425.577 52.9771C435.458 58.8916 443.222 67.341 448.869 78.325C454.692 89.3091 457.603 102.068 457.603 116.6C457.603 131.133 454.692 143.976 448.869 155.129C443.222 166.113 435.458 174.647 425.577 180.731C415.695 186.645 404.667 189.602 392.491 189.602C382.257 189.602 373.169 187.575 365.229 183.519C357.465 179.463 351.377 174.225 346.965 167.803V255H301.704V46.1332H346.965V66.1581ZM411.548 116.6C411.548 105.785 408.372 97.336 402.02 91.2525C395.844 85 388.168 81.8737 378.992 81.8737C369.993 81.8737 362.317 85 355.965 91.2525C349.789 97.505 346.701 106.039 346.701 116.854C346.701 127.669 349.789 136.203 355.965 142.455C362.317 148.708 369.993 151.834 378.992 151.834C387.991 151.834 395.667 148.708 402.02 142.455C408.372 136.034 411.548 127.416 411.548 116.6Z" fill="url(#paint2_linear_322_3058)"/>
<path d="M556.254 44.6123C573.194 44.6123 586.781 50.0199 597.015 60.835C607.25 71.4811 612.367 86.1829 612.367 104.94V187.575H567.371V110.77C567.371 101.307 564.812 93.9563 559.695 88.7177C554.578 83.4791 547.696 80.8598 539.049 80.8598C530.403 80.8598 523.521 83.4791 518.404 88.7177C513.287 93.9563 510.728 101.307 510.728 110.77V187.575H465.467V0H510.728V65.1441C515.316 58.8916 521.58 53.9066 529.521 50.1889C537.461 46.4712 546.372 44.6123 556.254 44.6123Z" fill="url(#paint3_linear_322_3058)"/>
<path d="M618.938 116.6C618.938 102.068 621.762 89.3091 627.408 78.325C633.231 67.341 641.084 58.8916 650.965 52.9771C660.847 47.0626 671.875 44.1054 684.051 44.1054C694.462 44.1054 703.549 46.1332 711.313 50.1889C719.254 54.2445 725.341 59.5676 729.576 66.1581V46.1332H774.837V187.575H729.576V167.55C725.165 174.14 718.989 179.463 711.048 183.519C703.284 187.575 694.197 189.602 683.786 189.602C671.787 189.602 660.847 186.645 650.965 180.731C641.084 174.647 633.231 166.113 627.408 155.129C621.762 143.976 618.938 131.133 618.938 116.6ZM729.576 116.854C729.576 106.039 726.4 97.505 720.048 91.2525C713.872 85 706.284 81.8737 697.285 81.8737C688.286 81.8737 680.61 85 674.257 91.2525C668.081 97.336 664.993 105.785 664.993 116.6C664.993 127.416 668.081 136.034 674.257 142.455C680.61 148.708 688.286 151.834 697.285 151.834C706.284 151.834 713.872 148.708 720.048 142.455C726.4 136.203 729.576 127.669 729.576 116.854Z" fill="url(#paint4_linear_322_3058)"/>
<path d="M836.961 66.1581C841.196 59.5676 847.284 54.2445 855.225 50.1889C863.165 46.1332 872.253 44.1054 882.487 44.1054C894.662 44.1054 905.691 47.0626 915.573 52.9771C925.454 58.8916 933.218 67.341 938.865 78.325C944.688 89.3091 947.599 102.068 947.599 116.6C947.599 131.133 944.688 143.976 938.865 155.129C933.218 166.113 925.454 174.647 915.573 180.731C905.691 186.645 894.662 189.602 882.487 189.602C872.076 189.602 862.989 187.659 855.225 183.772C847.461 179.717 841.373 174.394 836.961 167.803V187.575H791.701V0H836.961V66.1581ZM901.544 116.6C901.544 105.785 898.368 97.336 892.016 91.2525C885.84 85 878.164 81.8737 868.988 81.8737C859.989 81.8737 852.313 85 845.961 91.2525C839.785 97.505 836.697 106.039 836.697 116.854C836.697 127.669 839.785 136.203 845.961 142.455C852.313 148.708 859.989 151.834 868.988 151.834C877.987 151.834 885.663 148.708 892.016 142.455C898.368 136.034 901.544 127.416 901.544 116.6Z" fill="url(#paint5_linear_322_3058)"/>
<path d="M1094.69 114.573C1094.69 118.628 1094.42 122.853 1093.89 127.247H991.46C992.166 136.034 995.078 142.793 1000.19 147.525C1005.49 152.087 1011.93 154.369 1019.52 154.369C1030.81 154.369 1038.66 149.806 1043.07 140.681H1091.25C1088.78 149.975 1084.28 158.34 1077.75 165.775C1071.39 173.211 1063.37 179.041 1053.66 183.265C1043.96 187.49 1033.1 189.602 1021.1 189.602C1006.64 189.602 993.754 186.645 982.461 180.731C971.168 174.816 962.345 166.367 955.993 155.383C949.64 144.399 946.464 131.556 946.464 116.854C946.464 102.152 949.552 89.3091 955.728 78.325C962.08 67.341 970.903 58.8916 982.196 52.9771C993.49 47.0626 1006.46 44.1054 1021.1 44.1054C1035.4 44.1054 1048.1 46.9781 1059.22 52.7237C1070.34 58.4692 1078.98 66.665 1085.16 77.3111C1091.51 87.9573 1094.69 100.378 1094.69 114.573ZM1048.37 103.166C1048.37 95.7306 1045.72 89.8161 1040.43 85.4225C1035.13 81.0288 1028.52 78.832 1020.58 78.832C1012.99 78.832 1006.55 80.9443 1001.25 85.169C996.136 89.3936 992.96 95.3926 991.725 103.166H1048.37Z" fill="url(#paint6_linear_322_3058)"/>
<path d="M1185 150.82V187.575H1161.97C1145.56 187.575 1132.77 183.772 1123.59 176.168C1114.42 168.395 1109.83 155.805 1109.83 138.4V82.1272H1091.83V46.1332H1109.83V11.66H1155.09V46.1332H1184.74V82.1272H1155.09V138.907C1155.09 143.131 1156.15 146.173 1158.27 148.032C1160.38 149.891 1163.91 150.82 1168.85 150.82H1185Z" fill="url(#paint7_linear_322_3058)"/>
<path d="M618.938 116.6C618.938 102.068 621.762 89.3091 627.408 78.325C633.231 67.3409 641.084 58.8916 650.965 52.9771C660.847 47.0626 671.875 44.1054 684.051 44.1054C694.462 44.1054 703.549 46.1332 711.313 50.1889C719.254 54.2445 725.341 59.5676 729.576 66.158V46.1332H774.837V187.575H729.576V167.55C725.165 174.14 718.989 179.463 711.048 183.519C703.284 187.575 694.197 189.602 683.786 189.602C671.787 189.602 660.847 186.645 650.965 180.731C641.084 174.647 633.231 166.113 627.408 155.129C621.762 143.976 618.938 131.133 618.938 116.6ZM729.576 116.854C729.576 106.039 726.4 97.505 720.048 91.2525C713.872 85 706.284 81.8737 697.285 81.8737C688.286 81.8737 680.61 85 674.257 91.2525C668.081 97.336 664.993 105.785 664.993 116.6C664.993 127.416 668.081 136.034 674.257 142.455C680.61 148.708 688.286 151.834 697.285 151.834C706.284 151.834 713.872 148.708 720.048 142.455C726.4 136.203 729.576 127.669 729.576 116.854Z" fill="url(#paint8_linear_322_3058)"/>
<path d="M836.961 66.158C841.196 59.5676 847.284 54.2445 855.224 50.1889C863.165 46.1332 872.253 44.1054 882.487 44.1054C894.662 44.1054 905.691 47.0626 915.572 52.9771C925.454 58.8916 933.218 67.3409 938.865 78.325C944.688 89.3091 947.599 102.068 947.599 116.6C947.599 131.133 944.688 143.976 938.865 155.129C933.218 166.113 925.454 174.647 915.572 180.731C905.691 186.645 894.662 189.602 882.487 189.602C872.076 189.602 862.989 187.659 855.224 183.772C847.46 179.717 841.373 174.394 836.961 167.803V187.575H791.7V0H836.961V66.158ZM901.544 116.6C901.544 105.785 898.368 97.336 892.016 91.2525C885.84 85 878.164 81.8737 868.988 81.8737C859.989 81.8737 852.313 85 845.961 91.2525C839.785 97.505 836.697 106.039 836.697 116.854C836.697 127.669 839.785 136.203 845.961 142.455C852.313 148.708 859.989 151.834 868.988 151.834C877.987 151.834 885.663 148.708 892.016 142.455C898.368 136.034 901.544 127.416 901.544 116.6Z" fill="url(#paint9_linear_322_3058)"/>
<defs>
<linearGradient id="paint0_linear_322_3058" x1="580.985" y1="1.19761e-08" x2="580.985" y2="189" gradientUnits="userSpaceOnUse">
<stop stop-color="white" stop-opacity="0"/>
<stop offset="1" stop-color="white" stop-opacity="0.05"/>
</linearGradient>
<linearGradient id="paint1_linear_322_3058" x1="580.985" y1="1.19761e-08" x2="580.985" y2="189" gradientUnits="userSpaceOnUse">
<stop stop-color="white" stop-opacity="0"/>
<stop offset="1" stop-color="white" stop-opacity="0.05"/>
</linearGradient>
<linearGradient id="paint2_linear_322_3058" x1="580.985" y1="1.19761e-08" x2="580.985" y2="189" gradientUnits="userSpaceOnUse">
<stop stop-color="white" stop-opacity="0"/>
<stop offset="1" stop-color="white" stop-opacity="0.05"/>
</linearGradient>
<linearGradient id="paint3_linear_322_3058" x1="580.985" y1="1.19761e-08" x2="580.985" y2="189" gradientUnits="userSpaceOnUse">
<stop stop-color="white" stop-opacity="0"/>
<stop offset="1" stop-color="white" stop-opacity="0.05"/>
</linearGradient>
<linearGradient id="paint4_linear_322_3058" x1="580.985" y1="1.19761e-08" x2="580.985" y2="189" gradientUnits="userSpaceOnUse">
<stop stop-color="white" stop-opacity="0"/>
<stop offset="1" stop-color="white" stop-opacity="0.05"/>
</linearGradient>
<linearGradient id="paint5_linear_322_3058" x1="580.985" y1="1.19761e-08" x2="580.985" y2="189" gradientUnits="userSpaceOnUse">
<stop stop-color="white" stop-opacity="0"/>
<stop offset="1" stop-color="white" stop-opacity="0.05"/>
</linearGradient>
<linearGradient id="paint6_linear_322_3058" x1="580.985" y1="1.19761e-08" x2="580.985" y2="189" gradientUnits="userSpaceOnUse">
<stop stop-color="white" stop-opacity="0"/>
<stop offset="1" stop-color="white" stop-opacity="0.05"/>
</linearGradient>
<linearGradient id="paint7_linear_322_3058" x1="580.985" y1="1.19761e-08" x2="580.985" y2="189" gradientUnits="userSpaceOnUse">
<stop stop-color="white" stop-opacity="0"/>
<stop offset="1" stop-color="white" stop-opacity="0.05"/>
</linearGradient>
<linearGradient id="paint8_linear_322_3058" x1="783.269" y1="0" x2="783.269" y2="189.602" gradientUnits="userSpaceOnUse">
<stop stop-color="#00CFCD" stop-opacity="0"/>
<stop offset="1" stop-color="#00CFCD"/>
</linearGradient>
<linearGradient id="paint9_linear_322_3058" x1="783.269" y1="0" x2="783.269" y2="189.602" gradientUnits="userSpaceOnUse">
<stop stop-color="#00CFCD" stop-opacity="0"/>
<stop offset="1" stop-color="#00CFCD"/>
</linearGradient>
</defs>
</svg>
